<svg xmlns="http://www.w3.org/2000/svg" width="1600" height="1000" viewBox="0 0 1600 1000" role="img" aria-labelledby="title desc">
  <title id="title">Codex Memory Map</title>
  <desc id="desc">A source-backed map of work patterns, career direction, and recurring systems.</desc>
  <defs>
    <style>
      .title { font: 760 34px Inter, ui-sans-serif, system-ui, sans-serif; fill: #111827; }
      .subtitle { font: 16px Inter, ui-sans-serif, system-ui, sans-serif; fill: #64748b; }
      .territory { fill-opacity: .45; stroke-opacity: .55; stroke-width: 1.4; }
      .territory-label { font: 760 19px Inter, ui-sans-serif, system-ui, sans-serif; fill: #334155; }
      .edge { fill: none; stroke: #2563eb; stroke-width: 2.8; opacity: .68; }
      .edge.risk { stroke: #dc2626; }
      .node-card { fill: #fff; stroke-width: 1.8; filter: drop-shadow(0 10px 18px rgba(15, 23, 42, .12)); }
      .center-card { stroke: #2563eb; stroke-width: 4; }
      .node-label { font: 760 15px Inter, ui-sans-serif, system-ui, sans-serif; fill: #111827; text-anchor: middle; dominant-baseline: middle; }
      .center-label { font: 780 24px Inter, ui-sans-serif, system-ui, sans-serif; fill: #111827; text-anchor: middle; dominant-baseline: middle; }
      .node-sub { font: 13px Inter, ui-sans-serif, system-ui, sans-serif; fill: #64748b; text-anchor: middle; }
      .readout-title { font: 760 15px Inter, ui-sans-serif, system-ui, sans-serif; fill: #111827; }
      .readout-text { font: 13px Inter, ui-sans-serif, system-ui, sans-serif; fill: #475569; }
    </style>
  </defs>
  <rect width="1600" height="1000" fill="#f8fafc"/>
  <rect x="24" y="24" width="1552" height="952" rx="12" fill="#fff" stroke="#cbd5e1"/>
  <text class="title" x="72" y="82">Codex Memory Map</text>
  <text class="subtitle" x="390" y="82">A source-backed map of work patterns, career direction, and recurring systems.</text>
  <g>
    <rect class="territory" x="109" y="167.64" width="356.40000000000003" height="270" rx="34" fill="#dcfce7" stroke="#dcfce7"/>
    <text class="territory-label" x="137.08" y="204.36">Career</text>
    <rect class="territory" x="875.8000000000001" y="167.64" width="388.8" height="318.6" rx="34" fill="#dbeafe" stroke="#dbeafe"/>
    <text class="territory-label" x="903.8800000000001" y="204.36">Repos</text>
    <rect class="territory" x="111.16" y="547.8" width="394.20000000000005" height="324" rx="34" fill="#ede9fe" stroke="#ede9fe"/>
    <text class="territory-label" x="139.24" y="584.52">Workflows</text>
    <rect class="territory" x="535.6" y="726" width="356.40000000000003" height="162" rx="34" fill="#fef3c7" stroke="#fef3c7"/>
    <text class="territory-label" x="563.6800000000001" y="762.72">Preferences</text>
    <rect class="territory" x="940.6" y="537" width="318.6" height="194.4" rx="34" fill="#fee2e2" stroke="#fee2e2"/>
    <text class="territory-label" x="968.6800000000001" y="573.72">Risks</text>
    <rect class="territory" x="913.6" y="769.2" width="307.8" height="156.60000000000002" rx="34" fill="#cffafe" stroke="#cffafe"/>
    <text class="territory-label" x="941.6800000000001" y="805.9200000000001">Artifacts</text></g>
  <g><path class="edge " d="M 724.6 526.2 C 495.1 526.2, 495.1 254.04000000000002, 265.6 254.04000000000002"/><path class="edge " d="M 724.6 526.2 C 902.8 526.2, 902.8 380.40000000000003, 1081 380.40000000000003"/><path class="edge " d="M 724.6 526.2 C 492.40000000000003 526.2, 492.40000000000003 618, 260.20000000000005 618"/><path class="edge " d="M 724.6 526.2 C 881.2 526.2, 881.2 243.24, 1037.8000000000002 243.24"/><path class="edge " d="M 724.6 526.2 C 892 526.2, 892 312.36, 1059.4 312.36"/><path class="edge " d="M 724.6 526.2 C 500.5 526.2, 500.5 362.04, 276.4 362.04"/><path class="edge " d="M 659.8000000000001 809.1600000000001 C 465.40000000000003 809.1600000000001, 465.40000000000003 715.2, 271 715.2"/><path class="edge " d="M 800.2 812.4000000000001 C 940.6 812.4000000000001, 940.6 380.40000000000003, 1081 380.40000000000003"/><path class="edge " d="M 800.2 812.4000000000001 C 919.0000000000001 812.4000000000001, 919.0000000000001 243.24, 1037.8000000000002 243.24"/><path class="edge " d="M 265.6 254.04000000000002 C 262.90000000000003 254.04000000000002, 262.90000000000003 618, 260.20000000000005 618"/><path class="edge " d="M 276.4 362.04 C 268.3 362.04, 268.3 618, 260.20000000000005 618"/><path class="edge " d="M 260.20000000000005 618 C 365.5 618, 365.5 661.2, 470.8 661.2"/><path class="edge " d="M 1081 380.40000000000003 C 676 380.40000000000003, 676 715.2, 271 715.2"/><path class="edge " d="M 1059.4 312.36 C 665.2 312.36, 665.2 715.2, 271 715.2"/><path class="edge risk" d="M 1059.4 312.36 C 1074.52 312.36, 1074.52 639.6, 1089.64 639.6"/><path class="edge risk" d="M 271 715.2 C 680.32 715.2, 680.32 639.6, 1089.64 639.6"/><path class="edge " d="M 262.36 812.4000000000001 C 758.0800000000002 812.4000000000001, 758.0800000000002 834, 1253.8000000000002 834"/><path class="edge " d="M 659.8000000000001 809.1600000000001 C 460.00000000000006 809.1600000000001, 460.00000000000006 618, 260.20000000000005 618"/></g>
  <g><g>
      <rect class="node-card center-card" x="618.76" y="464.81280000000004" width="211.68" height="122.7744" rx="22" stroke="#2563eb"/>
      <circle cx="636.76" cy="526.2" r="4.5" fill="#2563eb"/>
      <text class="center-label" x="724.6" y="508.70000000000005">Frank</text><text class="center-label" x="724.6" y="535.7">Valdez</text>
      
      <text class="node-sub" x="724.6" y="574.2">Information Designer</text>
      <text class="node-sub" x="724.6" y="591.2">Systems Builder</text>
    </g><g>
      <rect class="node-card " x="597.1600000000001" y="772.8288000000001" width="125.28" height="72.66239999999999" rx="18" stroke="#d97706"/>
      <circle cx="615.1600000000001" cy="809.1600000000001" r="4.5" fill="#d97706"/>
      <text class="node-label" x="659.8000000000001" y="800.1600000000001">Answer First</text><text class="node-label" x="659.8000000000001" y="818.1600000000001">Prove It</text>
      
    </g><g>
      <rect class="node-card " x="737.5600000000001" y="776.0688000000001" width="125.28" height="72.66239999999999" rx="18" stroke="#d97706"/>
      <circle cx="755.5600000000001" cy="812.4000000000001" r="4.5" fill="#d97706"/>
      <text class="node-label" x="800.2" y="803.4000000000001">Stay</text><text class="node-label" x="800.2" y="821.4000000000001">In Scope</text>
      
    </g><g>
      <rect class="node-card " x="194.32000000000002" y="212.69760000000002" width="142.56" height="82.6848" rx="18" stroke="#16a34a"/>
      <circle cx="212.32000000000002" cy="254.04000000000002" r="4.5" fill="#16a34a"/>
      <text class="node-label" x="265.6" y="245.04000000000002">Business Systems</text><text class="node-label" x="265.6" y="263.04">Automation</text>
      
    </g><g>
      <rect class="node-card " x="209.43999999999997" y="323.20320000000004" width="133.92000000000002" height="77.67360000000001" rx="18" stroke="#16a34a"/>
      <circle cx="227.43999999999997" cy="362.04" r="4.5" fill="#16a34a"/>
      <text class="node-label" x="276.4" y="353.04">Seasonal</text><text class="node-label" x="276.4" y="371.04">Operations</text>
      
    </g><g>
      <rect class="node-card " x="1014.04" y="341.56320000000005" width="133.92000000000002" height="77.67360000000001" rx="18" stroke="#2563eb"/>
      <circle cx="1032.04" cy="380.40000000000003" r="4.5" fill="#2563eb"/>
      <text class="node-label" x="1081" y="371.40000000000003">Portfolio</text><text class="node-label" x="1081" y="389.40000000000003">Site</text>
      
    </g><g>
      <rect class="node-card " x="970.8400000000001" y="204.4032" width="133.92000000000002" height="77.67360000000001" rx="18" stroke="#2563eb"/>
      <circle cx="988.8400000000001" cy="243.24" r="4.5" fill="#2563eb"/>
      <text class="node-label" x="1037.8000000000002" y="243.24">personal-cafe</text>
      
    </g><g>
      <rect class="node-card " x="992.44" y="273.52320000000003" width="133.92000000000002" height="77.67360000000001" rx="18" stroke="#2563eb"/>
      <circle cx="1010.44" cy="312.36" r="4.5" fill="#2563eb"/>
      <text class="node-label" x="1059.4" y="303.36">Job-board</text><text class="node-label" x="1059.4" y="321.36">Projects</text>
      
    </g><g>
      <rect class="node-card " x="206.2" y="677.616" width="129.60000000000002" height="75.168" rx="18" stroke="#2563eb"/>
      <circle cx="224.2" cy="715.2" r="4.5" fill="#2563eb"/>
      <text class="node-label" x="271" y="706.2">GitHub Pages</text><text class="node-label" x="271" y="724.2">Checks</text>
      
    </g><g>
      <rect class="node-card " x="195.40000000000003" y="580.4159999999999" width="129.60000000000002" height="75.168" rx="18" stroke="#7c3aed"/>
      <circle cx="213.40000000000003" cy="618" r="4.5" fill="#7c3aed"/>
      <text class="node-label" x="260.20000000000005" y="609">Resume</text><text class="node-label" x="260.20000000000005" y="627">Workflow</text>
      
    </g><g>
      <rect class="node-card " x="410.32" y="626.1216000000001" width="120.96000000000001" height="70.1568" rx="18" stroke="#7c3aed"/>
      <circle cx="428.32" cy="661.2" r="4.5" fill="#7c3aed"/>
      <text class="node-label" x="470.8" y="652.2">Cover</text><text class="node-label" x="470.8" y="670.2">Letters</text>
      
    </g><g>
      <rect class="node-card " x="111.16000000000001" y="434.96160000000003" width="120.96000000000001" height="70.1568" rx="18" stroke="#dc2626"/>
      <circle cx="129.16000000000003" cy="470.04" r="4.5" fill="#dc2626"/>
      <text class="node-label" x="171.64000000000001" y="461.04">Filesystem</text><text class="node-label" x="171.64000000000001" y="479.04">Triage</text>
      
    </g><g>
      <rect class="node-card " x="197.56" y="774.816" width="129.60000000000002" height="75.168" rx="18" stroke="#7c3aed"/>
      <circle cx="215.56" cy="812.4000000000001" r="4.5" fill="#7c3aed"/>
      <text class="node-label" x="262.36" y="803.4000000000001">Skill</text><text class="node-label" x="262.36" y="821.4000000000001">Creation</text>
      
    </g><g>
      <rect class="node-card " x="1193.3200000000002" y="798.9216" width="120.96000000000001" height="70.1568" rx="18" stroke="#7c3aed"/>
      <circle cx="1211.3200000000002" cy="834" r="4.5" fill="#7c3aed"/>
      <text class="node-label" x="1253.8000000000002" y="825">Understand-</text><text class="node-label" x="1253.8000000000002" y="843">Anything</text>
      
    </g><g>
      <rect class="node-card " x="990.28" y="811.3632" width="133.92000000000002" height="77.67360000000001" rx="18" stroke="#0891b2"/>
      <circle cx="1008.28" cy="850.2" r="4.5" fill="#0891b2"/>
      <text class="node-label" x="1057.24" y="841.2">Static HTML</text><text class="node-label" x="1057.24" y="859.2">Artifacts</text>
      
    </g><g>
      <rect class="node-card " x="357.4" y="383.12160000000006" width="120.96000000000001" height="70.1568" rx="18" stroke="#d97706"/>
      <circle cx="375.4" cy="418.20000000000005" r="4.5" fill="#d97706"/>
      <text class="node-label" x="417.88" y="409.20000000000005">Plain-language</text><text class="node-label" x="417.88" y="427.20000000000005">Handoff</text>
      
    </g><g>
      <rect class="node-card " x="1020.5200000000001" y="599.5104" width="138.24" height="80.1792" rx="18" stroke="#dc2626"/>
      <circle cx="1038.52" cy="639.6" r="4.5" fill="#dc2626"/>
      <text class="node-label" x="1089.64" y="630.6">Stale Live</text><text class="node-label" x="1089.64" y="648.6">State Risk</text>
      
    </g></g>
  <g>
    <rect x="72" y="890" width="1456" height="72" rx="8" fill="#f8fafc" stroke="#e2e8f0"/>
    <text class="readout-title" x="102" y="925">Source scope</text>
    <text class="readout-text" x="102" y="950">Codex memory notes only. Raw private contents and absolute local paths are excluded.</text>
    <text class="readout-title" x="760" y="925">Map overview</text>
    <text class="readout-text" x="760" y="950">8 clusters, 17 topics, 18 primary links. Generated from data/mind-map-snapshot.json.</text>
  </g>
</svg>
